<?xml version="1.0" standalone="no"?>
<!DOCTYPE svg PUBLIC "-//W3C//DTD SVG 20010904//EN"
 "http://www.w3.org/TR/2001/REC-SVG-20010904/DTD/svg10.dtd">
<svg version="1.0" xmlns="http://www.w3.org/2000/svg"
 width="106.000000pt" height="106.000000pt" viewBox="0 0 106.000000 106.000000"
 preserveAspectRatio="xMidYMid meet">
<metadata>
Created by potrace 1.11, written by Peter Selinger 2001-2013
</metadata>
<g transform="translate(0.000000,106.000000) scale(0.100000,-0.100000)"
fill="#000000" stroke="none">
<path d="M503 1026 c-75 -62 -156 -75 -231 -37 -24 12 -47 19 -51 16 -8 -4
-66 -107 -123 -214 l-17 -34 30 -38 c42 -54 46 -91 15 -172 -20 -52 -26 -86
-26 -145 1 -128 47 -199 196 -298 145 -97 257 -118 361 -70 70 33 190 116 235
162 80 84 102 205 58 329 -32 90 -30 137 8 191 l32 45 -66 119 c-37 66 -70
123 -75 125 -4 3 -27 -4 -51 -16 -54 -28 -122 -28 -175 0 -23 11 -44 25 -48
31 -17 27 -44 30 -72 6z m102 -66 c65 -34 119 -38 185 -15 23 8 44 15 45 15 7
0 94 -158 100 -180 4 -18 -1 -36 -19 -63 -39 -57 -39 -74 -6 -181 16 -54 30
-119 30 -145 0 -123 -111 -237 -319 -327 l-83 -36 -79 33 c-148 59 -266 150
-305 234 -31 65 -30 123 0 222 37 118 37 144 1 197 -14 20 -25 43 -25 52 0 12
98 194 105 194 1 0 22 -7 45 -15 66 -23 120 -19 181 14 30 16 61 30 70 30 10
1 43 -12 74 -29z"/>
<path d="M465 924 c-56 -27 -146 -32 -191 -12 -19 9 -29 9 -31 2 -2 -6 -19
-35 -38 -64 -40 -62 -42 -81 -16 -124 35 -56 36 -97 5 -188 -27 -82 -35 -159
-22 -209 19 -68 110 -146 250 -215 110 -54 121 -53 239 5 107 53 184 113 217
170 36 61 35 145 -2 250 -33 94 -33 128 0 172 32 43 28 78 -20 153 -34 54 -36
55 -68 45 -59 -16 -129 -10 -186 16 -65 30 -73 30 -137 -1z m-104 -170 c16
-20 1 -48 -30 -52 -13 -2 -21 -11 -21 -23 0 -10 -4 -19 -10 -19 -5 0 -10 25
-10 55 0 54 1 55 29 55 16 0 34 -7 42 -16z m101 -1 c36 -32 13 -93 -36 -93
-31 0 -46 18 -46 57 0 49 46 69 82 36z m48 -28 c0 -41 2 -45 25 -45 14 0 25
-4 25 -10 0 -5 -16 -10 -35 -10 l-35 0 0 55 c0 30 5 55 10 55 6 0 10 -20 10
-45z m80 -10 c0 -30 -4 -55 -10 -55 -5 0 -10 25 -10 55 0 30 5 55 10 55 6 0
10 -25 10 -55z m84 49 c17 -7 22 -34 6 -34 -5 0 -10 5 -10 10 0 15 -26 12 -40
-5 -6 -8 -9 -23 -5 -35 7 -21 39 -28 50 -10 12 20 26 10 15 -10 -14 -27 -65
-27 -80 -1 -14 28 -12 52 7 73 17 19 31 22 57 12z m111 -4 c4 -6 -7 -10 -24
-10 -21 0 -31 -5 -31 -15 0 -9 9 -15 25 -15 14 0 25 -4 25 -10 0 -5 -11 -10
-25 -10 -14 0 -25 -4 -25 -10 0 -5 14 -10 30 -10 17 0 30 -4 30 -10 0 -5 -18
-10 -40 -10 l-40 0 0 55 0 55 34 0 c19 0 38 -4 41 -10z m-222 -270 l17 -60 63
0 62 -1 -27 -20 c-76 -57 -73 -49 -53 -108 9 -29 15 -54 13 -57 -3 -2 -26 12
-51 31 l-47 36 -47 -36 c-25 -19 -48 -33 -51 -31 -2 3 4 28 13 57 20 59 23 51
-53 108 l-27 20 62 1 63 0 17 60 c9 33 19 60 22 60 3 0 14 -27 24 -60z"/>
<path d="M310 736 c0 -10 9 -16 21 -16 24 0 21 23 -4 28 -10 2 -17 -3 -17 -12z"/>
<path d="M404 736 c-10 -26 1 -51 23 -54 14 -2 23 3 28 18 12 37 -38 71 -51
36z"/>
</g>
</svg>
