<?xml version="1.0" encoding="utf-8"?>
<!-- Generator: Adobe Illustrator 16.0.0, SVG Export Plug-In . SVG Version: 6.00 Build 0)  -->
<!DOCTYPE svg PUBLIC "-//W3C//DTD SVG 1.1//EN" "http://www.w3.org/Graphics/SVG/1.1/DTD/svg11.dtd">
<svg version="1.1" id="Layer_1" xmlns="http://www.w3.org/2000/svg" xmlns:xlink="http://www.w3.org/1999/xlink" x="0px" y="0px"
	 width="362.033px" height="325.556px" viewBox="114.719 304.796 362.033 325.556"
	 enable-background="new 114.719 304.796 362.033 325.556" xml:space="preserve">
<g>
	<path d="M295.549,304.796H137.211c-12.422,0-22.492,10.071-22.492,22.492v208.209c0,12.422,10.07,22.492,22.492,22.492h176.586
		l-9.125-56.489H132.81V322.887h162.739 M286.579,530.854c0-4.996,4.049-9.048,9.047-9.048c4.996,0,9.047,4.052,9.047,9.048
		c0,4.994-4.051,9.047-9.047,9.047C290.627,539.9,286.579,535.849,286.579,530.854z"/>
	<polygon points="331.729,576.08 367.836,630.35 223.262,630.352 259.444,576.08 	"/>
</g>
<g>
	<g>
		<path fill="#FFFFFF" d="M225.083,328.271c46.211,0,92.424,0.082,138.635-0.131c4.572-0.021,5.508,0.922,5.492,5.492
			c-0.201,53.871-0.129,107.743-0.129,161.614c-48,0-96,0-143.998,0C225.083,439.588,225.083,383.93,225.083,328.271z"/>
		<path fill="#151515" d="M229.09,430.145c-0.207-8.813,1.75-17.577,5.582-25.638c4.502-9.469,2.808-17.301-4.434-24.167
			c-3.309-3.137-3.837-5.652-1.373-9.771c5.997-10.023,11.538-20.332,16.981-30.674c1.916-3.637,3.623-4.844,7.51-2.418
			c14.44,9.015,27.576,6.226,39.606-4.916c2.305-2.133,4.232-3.893,7.545-0.691c12.166,11.753,25.775,14.781,40.809,5.39
			c3.137-1.959,4.787-1.243,6.477,1.89c5.91,10.957,11.902,21.873,18.166,32.629c1.994,3.422,1.104,5.455-1.447,7.838
			c-7.76,7.254-8.885,15.222-4.938,25.469c12.148,31.565,4.988,51.672-23.771,70.245c-2.352,1.519-4.965,2.673-7.18,4.36
			c-28.639,21.822-53.076,8.276-76.896-9.229C238.27,460.57,228.398,448.405,229.09,430.145z"/>
		<path fill="#F7F7F8" d="M235.852,431.178c-0.063-9.486,2.371-17.528,5.682-25.305c4.305-10.118,3.646-19.413-4.086-27.618
			c-2.219-2.356-2.814-4.372-1.063-7.341c4.396-7.45,8.635-15.001,12.691-22.641c1.465-2.754,2.646-3.748,5.846-2.168
			c13.908,6.873,26.77,3.894,38.615-5.047c2.683-2.023,4.194-2.179,7.022-0.054c11.813,8.875,24.683,12.03,38.601,5.103
			c3.195-1.592,4.455-0.641,5.891,2.086c2.367,4.505,4.979,8.887,7.615,13.242c4.52,7.471,8.684,14.183,0.307,22.607
			c-5.391,5.422-3.52,13.386-0.809,20.332c3.16,8.096,5.748,16.279,6.191,25.107c0.613,12.231-4.561,21.778-13.166,29.71
			c-13.15,12.112-28.867,19.823-45.542,25.813c-1.792,0.646-3.282,0.775-5.106,0.082c-17.492-6.652-34.303-14.469-47.687-28.051
			C239.586,449.658,235.232,440.966,235.852,431.178z"/>
		<path fill="#0B0A0B" d="M297.193,481.807c-0.797-0.173-1.838-0.257-2.769-0.623c-15.465-6.084-30.354-13.13-42.869-24.447
			c-11.971-10.825-14.514-24.014-10.256-38.982c1.32-4.646,2.955-9.219,4.687-13.734c3.486-9.104,2.543-17.664-3.614-25.166
			c-3.113-3.793-3.293-6.901-0.425-10.641c1.069-1.395,1.685-3.13,2.563-4.676c2.396-4.207,4.002-9.341,7.457-12.335
			c3.757-3.257,8.23,1.542,12.625,1.93c10.381,0.916,19.853-1.286,28.291-7.141c3.287-2.28,5.218-2.052,8.494,0.103
			c11.244,7.389,23.502,9.752,36.361,4.67c3.271-1.293,4.547-0.475,5.926,2.215c1.625,3.166,3.369,6.297,5.361,9.24
			c4.639,6.855,7.201,13.004,0.424,20.729c-5.234,5.967-3.83,13.884-1.223,21.166c2.229,6.221,4.633,12.356,5.84,18.941
			c2.418,13.182-1.201,24.245-10.963,33.237c-12.574,11.588-27.686,18.862-43.459,24.922
			C298.941,481.483,298.167,481.576,297.193,481.807z"/>
	</g>
</g>
<g enable-background="new    ">
	<path fill="#FFFFFF" d="M258.199,391.191v-15.354h5.792c1.02,0,1.797,0.049,2.336,0.146c0.754,0.126,1.385,0.365,1.895,0.718
		s0.92,0.847,1.23,1.481c0.311,0.636,0.467,1.334,0.467,2.095c0,1.306-0.416,2.41-1.246,3.314c-0.832,0.904-2.332,1.356-4.504,1.356
		h-3.938v6.242H258.199z M260.231,383.138h3.969c1.313,0,2.245-0.244,2.797-0.733c0.551-0.488,0.827-1.177,0.827-2.063
		c0-0.642-0.163-1.191-0.487-1.649c-0.324-0.457-0.752-0.759-1.283-0.905c-0.342-0.091-0.974-0.137-1.895-0.137h-3.928V383.138z"/>
	<path fill="#FFFFFF" d="M271.887,383.714c0-2.549,0.685-4.544,2.053-5.985c1.369-1.442,3.135-2.163,5.3-2.163
		c1.417,0,2.694,0.339,3.833,1.016c1.139,0.678,2.006,1.622,2.603,2.833c0.597,1.212,0.896,2.585,0.896,4.121
		c0,1.558-0.314,2.95-0.942,4.179c-0.628,1.229-1.519,2.16-2.671,2.792s-2.395,0.947-3.729,0.947c-1.445,0-2.736-0.349-3.875-1.047
		s-2-1.651-2.587-2.859S271.887,385.062,271.887,383.714z M273.982,383.745c0,1.851,0.497,3.308,1.493,4.372
		c0.994,1.065,2.242,1.598,3.744,1.598c1.528,0,2.787-0.538,3.775-1.613s1.481-2.601,1.481-4.576c0-1.25-0.211-2.341-0.634-3.273
		c-0.422-0.932-1.04-1.654-1.854-2.168c-0.813-0.513-1.727-0.77-2.738-0.77c-1.439,0-2.676,0.494-3.713,1.481
		C274.5,379.784,273.982,381.434,273.982,383.745z"/>
	<path fill="#FFFFFF" d="M289.105,391.191v-15.354h2.032v13.542h7.562v1.812H289.105z"/>
	<path fill="#FFFFFF" d="M301.463,391.191v-15.354h2.032v15.354H301.463z"/>
	<path fill="#FFFFFF" d="M318.032,385.809l2.032,0.513c-0.426,1.669-1.192,2.941-2.299,3.817c-1.106,0.877-2.46,1.314-4.059,1.314
		c-1.655,0-3.001-0.337-4.037-1.011c-1.037-0.674-1.826-1.649-2.367-2.927c-0.541-1.278-0.812-2.65-0.812-4.116
		c0-1.599,0.305-2.993,0.916-4.185c0.611-1.189,1.48-2.094,2.607-2.712c1.129-0.618,2.369-0.927,3.725-0.927
		c1.535,0,2.827,0.391,3.875,1.173c1.047,0.782,1.776,1.882,2.188,3.299l-2.001,0.472c-0.355-1.117-0.873-1.931-1.55-2.44
		s-1.528-0.765-2.556-0.765c-1.18,0-2.166,0.282-2.959,0.849c-0.792,0.565-1.349,1.324-1.67,2.277s-0.481,1.937-0.481,2.948
		c0,1.306,0.19,2.445,0.571,3.42c0.38,0.974,0.972,1.702,1.774,2.184s1.673,0.723,2.608,0.723c1.138,0,2.102-0.328,2.891-0.984
		S317.752,387.1,318.032,385.809z"/>
	<path fill="#FFFFFF" d="M322.61,391.191v-15.354h11.102v1.812h-9.07v4.702h8.494v1.802h-8.494v5.227h9.426v1.812H322.61z"/>
</g>
<g>
	<path fill="#FFFFFF" d="M272.346,426.76c1.863,0.026,3.727,0.05,5.591,0.077c3.64,0.049,7.283,0.096,10.924,0.146
		c0.849,0.012,1.693,0.021,2.54,0.034c0.105,0.003,0.145-0.029,0.174-0.129c1.559-5.057,3.118-10.111,4.676-15.169
		c0.318-1.036,0.64-2.069,0.957-3.107c0.037,0.025,0.037,0.063,0.049,0.1c1.863,6.081,3.728,12.163,5.584,18.25
		c0.041,0.129,0.092,0.167,0.226,0.163c2.869-0.06,5.735-0.115,8.604-0.172c1.861-0.035,3.727-0.073,5.59-0.11
		c1.654-0.031,3.309-0.063,4.963-0.096c0.08-0.001,0.158,0,0.254,0c-0.021,0.048-0.068,0.063-0.102,0.088
		c-3.637,2.549-7.271,5.099-10.91,7.648c-1.582,1.107-3.166,2.219-4.752,3.325c-0.086,0.062-0.098,0.105-0.064,0.204
		c2.025,5.968,4.049,11.936,6.066,17.9c0.021,0.051,0.051,0.102,0.021,0.169c-0.291-0.214-0.578-0.427-0.867-0.637
		c-4.854-3.577-9.707-7.156-14.56-10.738c-0.077-0.053-0.123-0.046-0.19,0.006c-5.133,3.785-10.265,7.569-15.397,11.353
		c-0.034,0.022-0.067,0.048-0.127,0.09c0.063-0.184,0.116-0.338,0.171-0.494c2.072-5.876,4.146-11.752,6.227-17.627
		c0.041-0.118,0.021-0.173-0.082-0.244c-5.162-3.584-10.322-7.172-15.48-10.76c-0.026-0.021-0.053-0.04-0.08-0.063
		C272.346,426.897,272.346,426.828,272.346,426.76z"/>
</g>
<path d="M282.769,322.887h175.894V501.5h-176.99v56.489H454.26c12.422,0,22.492-10.07,22.492-22.492V327.288
	c0-12.421-10.07-22.492-22.492-22.492H284.833 M295.847,539.899c-4.997,0-9.048-4.053-9.048-9.047c0-4.997,4.051-9.048,9.048-9.048
	s9.047,4.052,9.047,9.048S300.844,539.899,295.847,539.899z"/>
</svg>
