<?xml version="1.0" encoding="utf-8"?>
<!-- Generator: Adobe Illustrator 16.0.0, SVG Export Plug-In . SVG Version: 6.00 Build 0)  -->
<!DOCTYPE svg PUBLIC "-//W3C//DTD SVG 1.1//EN" "http://www.w3.org/Graphics/SVG/1.1/DTD/svg11.dtd">
<svg version="1.1" id="Layer_1" xmlns="http://www.w3.org/2000/svg" xmlns:xlink="http://www.w3.org/1999/xlink" x="0px" y="0px"
	 width="434.024px" height="325.554px" viewBox="143.025 317.119 434.024 325.554"
	 enable-background="new 143.025 317.119 434.024 325.554" xml:space="preserve">
<g>
	<path d="M432.324,375.715v244.465c0,12.422,10.068,22.493,22.492,22.493h99.74c12.424,0,22.492-10.071,22.492-22.493V375.715
		c0-12.423-10.068-22.491-22.492-22.491h-99.74C442.395,353.223,432.324,363.292,432.324,375.715z M540.865,579.358
		c0-4.997,4.051-9.05,9.047-9.05s9.046,4.053,9.046,9.05c0,4.992-4.05,9.045-9.046,9.045S540.865,584.353,540.865,579.358z
		 M450.49,425.587h108.468v18.09H450.49V425.587z M450.49,371.313h108.468v36.183H450.49V371.313z"/>
	<path d="M143.025,339.611V547.82c0,12.422,10.071,22.492,22.492,22.492h248.789v-56.489H161.116V335.21h253.188h72.287h17.693
		c-2.047-10.313-11.141-18.091-22.055-18.091H165.518C153.097,317.119,143.025,327.19,143.025,339.611z M314.885,543.177
		c0-4.998,4.05-9.048,9.047-9.048s9.05,4.05,9.05,9.048c0,4.994-4.053,9.045-9.05,9.045S314.885,548.172,314.885,543.177z"/>
	<polygon points="360.036,588.403 396.143,642.673 251.567,642.675 287.751,588.403 	"/>
</g>
<g>
	<g>
		<path fill="#FFFFFF" d="M253.188,341.271c46.213,0,92.426,0.083,138.637-0.13c4.571-0.021,5.508,0.921,5.491,5.491
			c-0.201,53.871-0.129,107.743-0.129,161.614c-48,0-96.001,0-144.001,0C253.188,452.588,253.188,396.929,253.188,341.271z"/>
		<path fill="#151515" d="M257.196,443.144c-0.206-8.813,1.75-17.577,5.584-25.638c4.502-9.469,2.808-17.301-4.434-24.167
			c-3.309-3.137-3.837-5.651-1.373-9.771c5.998-10.024,11.537-20.333,16.981-30.674c1.915-3.638,3.623-4.845,7.509-2.418
			c14.441,9.014,27.576,6.225,39.607-4.917c2.304-2.133,4.231-3.893,7.545-0.691c12.165,11.753,25.772,14.781,40.807,5.39
			c3.136-1.959,4.787-1.242,6.478,1.89c5.908,10.957,11.9,21.874,18.167,32.63c1.991,3.421,1.103,5.454-1.448,7.837
			c-7.76,7.254-8.884,15.222-4.939,25.469c12.152,31.565,4.991,51.672-23.769,70.245c-2.354,1.519-4.965,2.673-7.179,4.36
			c-28.641,21.822-53.076,8.276-76.897-9.229C266.376,473.57,256.506,461.405,257.196,443.144z"/>
		<path fill="#F7F7F8" d="M263.959,444.177c-0.062-9.486,2.371-17.528,5.681-25.305c4.305-10.118,3.646-19.413-4.084-27.618
			c-2.221-2.355-2.815-4.372-1.063-7.341c4.397-7.45,8.635-15.001,12.692-22.641c1.463-2.754,2.646-3.748,5.844-2.167
			c13.91,6.872,26.77,3.893,38.615-5.047c2.684-2.024,4.195-2.18,7.023-0.055c11.812,8.875,24.682,12.03,38.599,5.103
			c3.196-1.592,4.456-0.641,5.892,2.087c2.368,4.504,4.979,8.886,7.614,13.242c4.522,7.47,8.685,14.182,0.31,22.606
			c-5.391,5.422-3.521,13.386-0.812,20.332c3.16,8.096,5.748,16.279,6.192,25.107c0.615,12.231-4.559,21.778-13.167,29.71
			c-13.148,12.112-28.867,19.823-45.54,25.813c-1.792,0.646-3.282,0.775-5.104,0.082c-17.493-6.652-34.304-14.469-47.688-28.051
			C267.692,462.658,263.34,453.966,263.959,444.177z"/>
		<path fill="#0B0A0B" d="M325.3,494.806c-0.796-0.173-1.837-0.257-2.768-0.623c-15.465-6.084-30.354-13.13-42.87-24.447
			c-11.97-10.825-14.515-24.014-10.257-38.982c1.322-4.646,2.957-9.219,4.687-13.734c3.487-9.104,2.544-17.662-3.614-25.166
			c-3.113-3.792-3.293-6.901-0.425-10.641c1.07-1.394,1.685-3.13,2.564-4.676c2.395-4.207,4.002-9.341,7.457-12.335
			c3.757-3.257,8.231,1.542,12.625,1.93c10.38,0.916,19.852-1.286,28.291-7.141c3.288-2.28,5.218-2.051,8.494,0.103
			c11.243,7.39,23.502,9.753,36.36,4.671c3.271-1.293,4.546-0.476,5.926,2.215c1.624,3.166,3.368,6.297,5.36,9.24
			c4.64,6.854,7.203,13.004,0.426,20.729c-5.234,5.967-3.832,13.884-1.223,21.166c2.229,6.221,4.631,12.356,5.839,18.941
			c2.418,13.182-1.201,24.245-10.96,33.237c-12.577,11.589-27.687,18.862-43.462,24.922
			C327.048,494.483,326.274,494.576,325.3,494.806z"/>
	</g>
</g>
<g enable-background="new    ">
	<path fill="#FFFFFF" d="M286.306,404.191v-15.354h5.792c1.02,0,1.798,0.049,2.336,0.146c0.754,0.126,1.386,0.365,1.896,0.718
		s0.92,0.847,1.23,1.481c0.311,0.636,0.467,1.334,0.467,2.095c0,1.306-0.416,2.41-1.247,3.314s-2.332,1.356-4.503,1.356h-3.938
		v6.242H286.306z M288.338,396.137h3.97c1.313,0,2.244-0.244,2.796-0.733c0.552-0.488,0.827-1.177,0.827-2.063
		c0-0.642-0.162-1.191-0.486-1.649c-0.325-0.457-0.753-0.759-1.283-0.905c-0.342-0.091-0.975-0.137-1.896-0.137h-3.928V396.137z"/>
	<path fill="#FFFFFF" d="M299.995,396.714c0-2.549,0.684-4.544,2.053-5.985c1.368-1.442,3.135-2.163,5.299-2.163
		c1.418,0,2.695,0.339,3.834,1.016c1.138,0.678,2.006,1.622,2.602,2.833c0.598,1.212,0.896,2.585,0.896,4.121
		c0,1.558-0.314,2.95-0.943,4.179c-0.628,1.229-1.518,2.16-2.67,2.792s-2.396,0.947-3.729,0.947c-1.445,0-2.737-0.349-3.875-1.047
		c-1.139-0.698-2.001-1.651-2.588-2.859C300.288,399.339,299.995,398.061,299.995,396.714z M302.089,396.745
		c0,1.851,0.498,3.308,1.493,4.372c0.995,1.065,2.243,1.598,3.744,1.598c1.528,0,2.788-0.538,3.775-1.613
		c0.988-1.075,1.481-2.601,1.481-4.576c0-1.25-0.211-2.341-0.633-3.273c-0.423-0.932-1.041-1.654-1.854-2.168
		c-0.814-0.513-1.727-0.77-2.739-0.77c-1.438,0-2.676,0.494-3.712,1.481C302.608,392.784,302.089,394.433,302.089,396.745z"/>
	<path fill="#FFFFFF" d="M317.212,404.191v-15.354h2.033v13.542h7.561v1.812H317.212z"/>
	<path fill="#FFFFFF" d="M329.571,404.191v-15.354h2.031v15.354H329.571z"/>
	<path fill="#FFFFFF" d="M346.14,398.808l2.031,0.513c-0.426,1.669-1.191,2.941-2.299,3.817c-1.106,0.877-2.459,1.314-4.059,1.314
		c-1.654,0-3-0.337-4.037-1.011s-1.826-1.649-2.367-2.927c-0.541-1.278-0.811-2.65-0.811-4.116c0-1.599,0.305-2.993,0.916-4.185
		c0.611-1.189,1.48-2.094,2.607-2.712c1.128-0.618,2.369-0.927,3.724-0.927c1.536,0,2.827,0.391,3.875,1.173
		s1.776,1.882,2.188,3.299l-2,0.472c-0.355-1.117-0.873-1.931-1.551-2.44c-0.677-0.51-1.528-0.765-2.555-0.765
		c-1.18,0-2.166,0.282-2.959,0.849c-0.793,0.565-1.35,1.324-1.67,2.277c-0.322,0.953-0.482,1.937-0.482,2.948
		c0,1.306,0.19,2.445,0.571,3.42c0.38,0.974,0.972,1.702,1.774,2.184s1.673,0.723,2.608,0.723c1.138,0,2.102-0.328,2.891-0.984
		S345.86,400.099,346.14,398.808z"/>
	<path fill="#FFFFFF" d="M350.717,404.191v-15.354h11.102v1.812h-9.069v4.702h8.493v1.802h-8.493v5.227h9.426v1.812H350.717z"/>
</g>
<g>
	<path fill="#FFFFFF" d="M300.453,439.76c1.864,0.026,3.728,0.05,5.591,0.077c3.64,0.049,7.283,0.096,10.924,0.146
		c0.85,0.012,1.693,0.021,2.541,0.034c0.106,0.003,0.146-0.029,0.173-0.129c1.56-5.057,3.118-10.111,4.678-15.169
		c0.316-1.036,0.639-2.069,0.958-3.107c0.036,0.025,0.036,0.063,0.048,0.1c1.861,6.081,3.727,12.163,5.584,18.25
		c0.041,0.129,0.091,0.167,0.225,0.163c2.869-0.06,5.736-0.115,8.604-0.172c1.86-0.035,3.726-0.073,5.591-0.11
		c1.653-0.031,3.306-0.063,4.961-0.096c0.082-0.001,0.16,0,0.252,0c-0.02,0.048-0.067,0.063-0.1,0.088
		c-3.639,2.549-7.271,5.099-10.909,7.648c-1.582,1.107-3.166,2.219-4.752,3.325c-0.087,0.062-0.1,0.105-0.067,0.204
		c2.027,5.968,4.049,11.936,6.069,17.9c0.018,0.051,0.051,0.102,0.018,0.169c-0.291-0.214-0.578-0.427-0.866-0.637
		c-4.854-3.577-9.708-7.156-14.56-10.738c-0.078-0.053-0.123-0.046-0.191,0.006c-5.132,3.785-10.264,7.569-15.396,11.353
		c-0.034,0.022-0.067,0.048-0.127,0.09c0.063-0.184,0.117-0.338,0.171-0.494c2.073-5.876,4.146-11.752,6.227-17.627
		c0.041-0.118,0.021-0.173-0.083-0.244c-5.16-3.584-10.321-7.172-15.479-10.76c-0.027-0.021-0.054-0.04-0.081-0.063
		C300.453,439.897,300.453,439.828,300.453,439.76z"/>
</g>
</svg>
